<svg data-name="レイヤー 1" xmlns="http://www.w3.org/2000/svg" viewBox="0 0 378.065 56.479"><path fill="#fff" d="M0 0h378.065v56.479H0z"/><path fill="#253053" d="M15.715 30.875l16.739-16.73v7.18l-9.559 9.55h-7.18zM37.305 9.293l4.566-4.552v15.056L56.937 4.741V32.73l14.809-14.793v26.519h-4.563V29.663L52.372 44.456V15.812L37.305 30.875V9.293z"/><path fill="#253053" d="M30.517 44.456l16.928-16.89v7.174l-9.75 9.716h-7.178zM29.803 47.465h2.019v9.014h-2.019zM6.003 56.479l2.173-6.195v6.195h1.965v-9.014H7.245l-2.171 6.34-2.174-6.34H0v9.014h1.966v-6.195l2.172 6.195h1.865zM18.575 52.664h-4.812c0 1.759 1.036 1.914 1.449 2.018s3.363 0 3.363 0v1.8h-4.036c-1.656 0-3.259-1.675-3.259-4.54s1.6-4.475 3.259-4.475h4.036v1.73s-2.949-.1-3.363 0-1.449.262-1.449 2.023h4.813v1.447zM28.817 51.957c0 2.792-2.376 4.522-3.359 4.522h-5.073v-9.014h5.074c.983 0 3.359 1.663 3.359 4.456m-2.455 0c0-1.753-.181-2.262-1.322-2.673h-2.688v5.385h2.687c1.141-.41 1.322-.916 1.322-2.676M35.077 51.89a4.013 4.013 0 0 0 .523 2.172c.828.928 4.808.571 4.808.571v1.846h-4.294c-1.6-.26-3.153-1.4-3.153-4.54s1.55-4.215 3.153-4.475h4.293v1.783s-3.98-.364-4.808.569a4.01 4.01 0 0 0-.523 2.171v-.1zM82.112 54.458l-.857 2.022h-2.3l3.825-9.014h2.07l3.833 9.014h-2.3l-.857-2.022h-3.414zm2.7-1.689l-.994-2.31-1 2.31h1.992zM76.263 47.465h2.021v9.014h-2.021zM52.462 56.479l2.176-6.195v6.195h1.963v-9.014h-2.893l-2.175 6.34-2.17-6.34h-2.901v9.014h1.969v-6.195l2.17 6.195h1.861zM65.037 52.664h-4.814c0 1.759 1.037 1.914 1.451 2.018s3.363 0 3.363 0v1.8H61c-1.654 0-3.261-1.675-3.261-4.54s1.61-4.477 3.261-4.477h4.035v1.73s-2.952-.1-3.363 0-1.451.262-1.451 2.023h4.814v1.447zM75.277 51.957c0 2.792-2.377 4.522-3.359 4.522h-5.071v-9.014h5.072c.981 0 3.359 1.663 3.359 4.456m-2.45 0c0-1.753-.185-2.262-1.325-2.673h-2.687v5.385H71.5c1.14-.41 1.325-.916 1.325-2.676M116.885 42.14c-3.391 5.065-8.49 8.116-15.589 9.555v-4.519c4.955-1.324 8.693-3.54 11.214-7.079a54.563 54.563 0 0 0-9.533-3.194V32.24a76.96 76.96 0 0 1 11.707 3.856 33.28 33.28 0 0 0 2.231-9.958h4.955a37.11 37.11 0 0 1-2.753 11.885 67.321 67.321 0 0 1 7.128 3.856v5.583a80.016 80.016 0 0 0-9.36-5.322zM147.286 38.888c-1.188 8.547-7.5 11.972-14.807 12.72v-4.547c5.65-.749 8.78-3.712 9.446-8.173h-12.054v-4.373h25.934v4.374h-8.52zm6.926-10.158v2.5h-22.573v-4.429h17.733v-2.216h2.9v2.216h1.043v-2.216h2.9v4.145h-2zM175.688 38.284v13.842h-4.81V40.787a48.2 48.2 0 0 1-10.345 2.734v-4.345c10.519-1.928 15.125-5.727 16.864-9.785h5.042a15.436 15.436 0 0 1-6.751 8.893zM191.833 41.133a91.938 91.938 0 0 0-2.55-10.821h4.491a91 91 0 0 1 2.726 10.821h-4.666zM194.3 51.78v-4.345c9.62-1.986 12.518-6.878 12.576-16.6v-.52h4.9v.547c-.124 13.666-6.585 19.364-17.476 20.918zm4.984-10.907a94.924 94.924 0 0 0-2.467-10.758h4.462a78.064 78.064 0 0 1 2.666 10.763h-4.665zM220.959 51.521v-4.406c9.707-1.007 15.155-6.13 16.314-15.713H226.32a16.087 16.087 0 0 1-9.562 9.151v-4.831a13.121 13.121 0 0 0 5.854-8.777h19.936v1.036c-.32 15.051-8.202 22.763-21.589 23.54zM261.792 42.14c-3.391 5.065-8.49 8.116-15.589 9.555v-4.519c4.955-1.324 8.693-3.54 11.214-7.079a54.563 54.563 0 0 0-9.533-3.194V32.24a76.96 76.96 0 0 1 11.707 3.856 33.264 33.264 0 0 0 2.23-9.958h4.955a37.122 37.122 0 0 1-2.752 11.885 67.358 67.358 0 0 1 7.128 3.856v5.583a79.976 79.976 0 0 0-9.36-5.322zM292.193 38.888c-1.188 8.547-7.5 11.972-14.808 12.72v-4.547c5.65-.749 8.78-3.712 9.446-8.173h-12.053v-4.373h25.934v4.374h-8.519zm6.925-10.158v2.5h-22.572v-4.429h17.733v-2.216h2.9v2.216h1.043v-2.216h2.9v4.145h-2zM320.595 38.284v13.842h-4.81V40.787a48.2 48.2 0 0 1-10.345 2.734v-4.345c10.519-1.928 15.126-5.727 16.864-9.785h5.042a15.433 15.433 0 0 1-6.751 8.893zM345.4 43.262c-2.116 4.749-6.2 7.367-10.838 8.375V47.09c4.9-1.813 7.679-5.353 7.679-12.058v-1.353h4.665v1.636a24.909 24.909 0 0 1-.174 3.022 8.608 8.608 0 0 0 6.288-7.051H333.7v-4.485h24.8v.95c-.173 10.187-6.722 14.417-13.1 15.511z"/><path d="M92.063 9.097a9.7 9.7 0 0 0-1.307.073V7.922a9.236 9.236 0 0 0 1.332.073h3.391a5.034 5.034 0 0 0-.079-.93h1.442a5.273 5.273 0 0 0-.074.93h3.632a7.67 7.67 0 0 0 1.319-.073V9.17a9.633 9.633 0 0 0-1.295-.073h-3.651v.575h2.75a9.181 9.181 0 0 0 1.171-.049 8.1 8.1 0 0 0-.049.979v2.413a8.1 8.1 0 0 0 .049.979 10.318 10.318 0 0 0-1.233-.049v.57h.949a7.667 7.667 0 0 0 1.319-.073v1.26a11.031 11.031 0 0 0-1.294-.073h-.974v1.591a.867.867 0 0 1-.382.856 3.047 3.047 0 0 1-1.6.245c-.173 0-.444-.012-.851-.024a4.907 4.907 0 0 0-.37-1.249 9.7 9.7 0 0 0 1.381.1c.456 0 .53-.037.53-.282v-1.234h-6.1a11.093 11.093 0 0 0-1.307.073v-1.26a9.236 9.236 0 0 0 1.332.073h6.079v-.575h-5.222a9.683 9.683 0 0 0-1.171.049 8.508 8.508 0 0 0 .049-.977v-2.413a8.369 8.369 0 0 0-.049-.979 9.181 9.181 0 0 0 1.171.049h2.527v-.575h-3.415zm2.614 8.995a7.271 7.271 0 0 0-1.726-1.616l.986-.783a7.129 7.129 0 0 1 1.776 1.522zm-1.566-7.4v.636h2.367v-.64h-2.367zm0 1.566v.673h2.367v-.677h-2.367zm3.662-.93h2.577v-.64h-2.577v.636zm0 1.6h2.577v-.674h-2.577v.673zM104.751 16.831a10.573 10.573 0 0 0 .074 1.505h-1.455a11.728 11.728 0 0 0 .074-1.518V8.803a13.521 13.521 0 0 0-.05-1.383 11.075 11.075 0 0 0 1.258.049h2.182a10.527 10.527 0 0 0 1.258-.049 14.62 14.62 0 0 0-.037 1.138v2.4a10.735 10.735 0 0 0 .037 1.089c-.3-.012-.7-.024-1.134-.024h-2.207v4.809zm0-7.514h2.1v-.783h-2.1v.781zm0 1.726h2.1v-.771h-2.1v.771zm8.926 5.776c0 1.175-.333 1.4-2.108 1.4-.222 0-.505-.012-1.011-.024a4.506 4.506 0 0 0-.333-1.334 13.355 13.355 0 0 0 1.665.11c.382 0 .468-.049.468-.306v-4.631h-2.318c-.444 0-.875.012-1.134.037.025-.282.037-.587.037-1.114v-2.4c0-.416-.012-.759-.037-1.138a10.8 10.8 0 0 0 1.258.049h2.293a11.554 11.554 0 0 0 1.282-.049 10.816 10.816 0 0 0-.062 1.371v8.025zm-3.5-7.5h2.182v-.785h-2.182v.781zm0 1.726h2.182v-.773h-2.182v.771zM116.946 8.889a8.809 8.809 0 0 0 .53-1.787l1.418.2a13.488 13.488 0 0 1-.629 1.591h.678c.6-.012.961-.025 1.06-.037a3.5 3.5 0 0 0-.024.367c0 .024-.012.062-.012.686v1.028a9.17 9.17 0 0 0 1.8-3.855l1.418.233a3.386 3.386 0 0 0-.173.477c-.049.184-.247.747-.357 1.028h2.626a7.29 7.29 0 0 0 1.048-.049 7.128 7.128 0 0 0-.049.967c-.025 1.518-.136 4.344-.185 4.968-.234 3.1-.555 3.561-2.454 3.561-.3 0-.6-.012-1.221-.049a4.149 4.149 0 0 0-.345-1.4 10.226 10.226 0 0 0 1.578.171c.53 0 .715-.1.826-.453a31.211 31.211 0 0 0 .456-6.437h-2.86a9.466 9.466 0 0 1-1.578 2.3 3.144 3.144 0 0 0-.53-.612v4.7a11.9 11.9 0 0 0 .049 1.212H118.7v-.733h-1.751v1.077H115.6a12.465 12.465 0 0 0 .062-1.579V10.1a9.988 9.988 0 0 0-.049-1.249 5.915 5.915 0 0 0 .653.037h.678zm-.012 3.353h1.766v-2.166h-1.763v2.166zm0 3.549h1.766v-2.362h-1.763v2.362zm5.807-.551a11.868 11.868 0 0 0-1.59-3.108l1.122-.6a15.891 15.891 0 0 1 1.714 3.035zM132.383 7.408a6.164 6.164 0 0 0-.2.82c-.062.294-.123.539-.259 1.077a10.662 10.662 0 0 0 1.973-.343l.037 1.407a2.419 2.419 0 0 0-.395.061c-.444.074-1.2.159-1.96.221a23.337 23.337 0 0 1-1.356 3.549c-.283.6-.395.82-.863 1.676-.16.294-.16.294-.234.441l-1.417-.783a11.169 11.169 0 0 0 1.2-1.958 18.737 18.737 0 0 0 1.159-2.888c-.555.012-.629.012-.776.012s-.234 0-.493-.012l-.654-.012v-1.4a8.647 8.647 0 0 0 1.665.11c.148 0 .357 0 .629-.012a12.4 12.4 0 0 0 .37-2.129zm5.585 9.913a7.45 7.45 0 0 0-1.887-1.518c.013.11.025.2.025.245a1.948 1.948 0 0 1-.53 1.3 2.86 2.86 0 0 1-2.046.685c-1.628 0-2.688-.808-2.688-2.056s1.1-2.1 2.663-2.1a6.146 6.146 0 0 1 1.146.11 23.109 23.109 0 0 1-.062-1.408 6.463 6.463 0 0 1 .1-1.236l1.43.073a4.061 4.061 0 0 0-.148 1.236 12.956 12.956 0 0 0 .111 1.676 7.725 7.725 0 0 1 1.948 1.126 4.609 4.609 0 0 1 .432.331 2.365 2.365 0 0 0 .185.171zm-4.377-2.24c-.8 0-1.319.331-1.319.845s.444.8 1.208.8a1.013 1.013 0 0 0 1.246-1.028c0-.122-.025-.416-.025-.416a3.127 3.127 0 0 0-1.109-.201zm4.438-3.39a15.143 15.143 0 0 0-3.551-1.713l.74-1.187a19.547 19.547 0 0 1 3.477 1.64zM144.073 10.969a8.507 8.507 0 0 1-.949 1.016 3.869 3.869 0 0 0-1.036-.8 5.75 5.75 0 0 0 1.689-1.982 2.434 2.434 0 0 0 .185-.477h-2.244v7.966h8.039a9.458 9.458 0 0 0 1.368-.073v1.371a7.922 7.922 0 0 0-1.356-.085h-8.051v.5h-1.43a11.459 11.459 0 0 0 .074-1.419V8.779c0-.526-.012-.93-.049-1.31a9.81 9.81 0 0 0 1.332.062h7.916a8.643 8.643 0 0 0 1.381-.086v1.358a8.255 8.255 0 0 0-1.344-.073h-5.449l1.085.318a1.682 1.682 0 0 0-.1.221c-.1.2-.1.2-.3.55h4.056a7.6 7.6 0 0 0 1.208-.061v1.272a8.969 8.969 0 0 0-1.2-.061h-1.9a2.386 2.386 0 0 1-.012.27c-.013.354-.025.6-.062.942h2.7a7.739 7.739 0 0 0 1.184-.061v1.285a8.1 8.1 0 0 0-1.221-.062h-2.305c.628.979 1.677 1.53 3.6 1.873a4.723 4.723 0 0 0-.641 1.3 6.011 6.011 0 0 1-3.9-2.5 5.63 5.63 0 0 1-3.563 2.5 3.791 3.791 0 0 0-.752-1.175 6.609 6.609 0 0 0 1.849-.673 3.417 3.417 0 0 0 1.406-1.322h-1.701a9.173 9.173 0 0 0-1.332.062v-1.293a9.229 9.229 0 0 0 1.356.061h2c.049-.44.049-.538.074-1.211h-1.6zM153.9 15.032a12.133 12.133 0 0 0-1.5.073v-1.358a10.48 10.48 0 0 0 1.492.086h3.354v-.086a5.736 5.736 0 0 0-.037-.673h.53a6.534 6.534 0 0 0 1.455-.991H155.8a12.337 12.337 0 0 0-1.233.049v-1.224a9.079 9.079 0 0 0 1.245.061h4.081a5.628 5.628 0 0 0 .937-.049l.678.747c-.21.171-.21.171-.444.367a17.307 17.307 0 0 1-2.466 1.787v.012h3.218a10.184 10.184 0 0 0 1.517-.086v1.358a12.3 12.3 0 0 0-1.529-.073H158.6v2.142a1.173 1.173 0 0 1-.161.771c-.209.306-.628.4-1.738.4-.16 0-.567-.012-1.208-.049a4.607 4.607 0 0 0-.407-1.3 11.349 11.349 0 0 0 1.529.123c.542 0 .628-.037.628-.282v-1.805H153.9zm.629-6.045a7.059 7.059 0 0 0-.925-1.383l1.246-.367a9.031 9.031 0 0 1 1.122 1.75h1.307a7.131 7.131 0 0 0-.752-1.542l1.282-.355a9.641 9.641 0 0 1 .851 1.9h1.048a8.088 8.088 0 0 0 1.011-1.835l1.331.36a12.834 12.834 0 0 1-.925 1.468h.555a14.991 14.991 0 0 0 1.517-.049 7.6 7.6 0 0 0-.049 1.016v1.138a7.352 7.352 0 0 0 .062.93h-1.344v-1.9h-8.039v1.9h-1.344a5.33 5.33 0 0 0 .062-.942V9.953a7.958 7.958 0 0 0-.049-1.016 11.977 11.977 0 0 0 1.455.049h.579zM166.564 9.88a7.4 7.4 0 0 1-1.073 1.664 4.367 4.367 0 0 0-1.06-.93 6.27 6.27 0 0 0 1.578-2.863 2.9 2.9 0 0 0 .148-.759l1.393.269c-.062.159-.1.27-.209.636-.074.257-.148.465-.259.771h1.861a8.08 8.08 0 0 0 1.221-.061v1.334a11.773 11.773 0 0 0-1.221-.061h-.456c-.024 1.3-.024 1.3-.074 1.921h.74a7.577 7.577 0 0 0 1.159-.061v1.346a8.011 8.011 0 0 0-1.2-.061h-.822c-.024.171-.037.232-.074.416a5.527 5.527 0 0 0 .641.967 7.7 7.7 0 0 0 1.6 1.542 4.936 4.936 0 0 0-.752 1.333 8.65 8.65 0 0 1-1.911-2.312 6.776 6.776 0 0 1-2.379 3.1 2.91 2.91 0 0 0-1.023-1.1 5.255 5.255 0 0 0 2.071-2.215 6.524 6.524 0 0 0 .505-1.726h-.949a7.643 7.643 0 0 0-1.344.073v-1.375a7.7 7.7 0 0 0 1.381.073h1.048a41.37 41.37 0 0 0 .062-1.921h-.6zm5.351 8.125h-1.369c.037-.392.074-.918.074-1.407V9.39a10.385 10.385 0 0 0-.074-1.3 7.328 7.328 0 0 0 1.134.061h2.589a7.812 7.812 0 0 0 1.147-.061 9.7 9.7 0 0 0-.062 1.3v7.085a14.529 14.529 0 0 0 .075 1.54h-1.393v-.841h-2.121v.832zm.024-2.056h2.1V9.378h-2.1v6.572zM180.374 10.296a16.439 16.439 0 0 0-.875-.024h-1.7a5.492 5.492 0 0 0-.9.049V9.109a4.635 4.635 0 0 0 .9.061h1.64a6.225 6.225 0 0 0 .937-.049v1.175zm-3.218 5.152a8.893 8.893 0 0 0-.049-1.04 5.034 5.034 0 0 0 .814.037h1.442a7.285 7.285 0 0 0 .813-.024 9.316 9.316 0 0 0-.024.991v1.774c0 .428.012.648.037 1.016h-1.023v-.4h-1v.612h-1.072a7.057 7.057 0 0 0 .062-1.126v-1.84zm.1-4.5a6.96 6.96 0 0 0 .863.037h1.109a8.025 8.025 0 0 0 .888-.037v1.126a8.342 8.342 0 0 0-.888-.037h-1.109a7.379 7.379 0 0 0-.863.037v-1.129zm0 1.726a6.96 6.96 0 0 0 .863.037h1.109a7.875 7.875 0 0 0 .888-.037V13.8a5.913 5.913 0 0 0-.888-.037h-1.109a7.247 7.247 0 0 0-.863.037v-1.13zm.012-5.274a4.182 4.182 0 0 0 .851.061h1.146a4.234 4.234 0 0 0 .863-.061v1.171a5.364 5.364 0 0 0-.863-.049h-1.146a5.3 5.3 0 0 0-.851.049V7.396zm.9 9.362h1.011v-1.338h-1.011v1.334zm5.573-8.518a5.059 5.059 0 0 0 .875-.049v1.1c-.185-.024-.259-.024-.444-.037a8.08 8.08 0 0 1-.345 1.408h1.085a63.81 63.81 0 0 1-.037-2.276 6.221 6.221 0 0 0-.074-1.187h1.319a11.724 11.724 0 0 0-.062 1.835c0 .7 0 .734.025 1.628h.728a8.169 8.169 0 0 0 1.356-.074v1.261a11.752 11.752 0 0 0-1.368-.074h-.69c.049.942.1 1.652.2 2.313a7.217 7.217 0 0 0 .739-1.86l1.052.573a6.93 6.93 0 0 0-.444.893 13.592 13.592 0 0 1-.986 1.823 2.255 2.255 0 0 0 .7 1.15c.111 0 .16-.4.185-1.517a3.624 3.624 0 0 0 .949.661 7.32 7.32 0 0 1-.3 1.64.878.878 0 0 1-.74.686 2.226 2.226 0 0 1-1.59-1.53A12.521 12.521 0 0 1 184 18.373a3.065 3.065 0 0 0-.851-.942c.357-.22.456-.281.666-.428h-1.9v.808h-1.159a7.024 7.024 0 0 0 .062-1.089v-3.269a8.486 8.486 0 0 0-.049-1.089 4.5 4.5 0 0 0 .8.037h2.083a7.685 7.685 0 0 0 .8-.037 10.672 10.672 0 0 0-.037 1.1v2.814l.013.171v.066a9.62 9.62 0 0 0 1-1.1 15.66 15.66 0 0 1-.481-3.635h-3.292a8.781 8.781 0 0 0-1.245.062v-1.227a8.682 8.682 0 0 0 .937.049 8.614 8.614 0 0 0-.284-1.408c-.185.013-.234.013-.419.037v-1.1a5.114 5.114 0 0 0 .8.049h.592v-.063a5.1 5.1 0 0 0-.062-.991h1.326a5.315 5.315 0 0 0-.062 1.052h.506zm-1.812 5.936h1.393v-.8h-1.393v.8zm0 1.787h1.393v-.82h-1.393v.82zm.863-5.3a6.1 6.1 0 0 0 .308-1.408h-.961a9.768 9.768 0 0 1 .222 1.408h.431zm4.363-2.952a8.507 8.507 0 0 1 .974 1.848l-.937.526a7.231 7.231 0 0 0-.9-1.946zM190.079 8.595a14.985 14.985 0 0 0 2.86.159 4.819 4.819 0 0 0 .493-1.518l1.615.171a9.242 9.242 0 0 0-.493 1.1c-.062.134-.086.171-.111.22.1-.012.1-.012.776-.049a16.762 16.762 0 0 0 3.23-.416l.086 1.4c-.345.024-.345.024-.974.1-.9.11-2.466.208-3.711.245a6.344 6.344 0 0 1-1.135 1.628l.013.024c.086-.062.086-.062.247-.184a2.994 2.994 0 0 1 1.738-.551 1.62 1.62 0 0 1 1.763 1.3q1.424-.514 1.886-.661a3.863 3.863 0 0 0 .913-.367l.579 1.407a11.013 11.013 0 0 0-1.368.331q-.259.073-1.85.624v.135c.012.318.012.318.012.49v.482c-.012.208-.012.318-.012.4a4.942 4.942 0 0 0 .037.648l-1.43.037a9.63 9.63 0 0 0 .074-1.42v-.289a7.492 7.492 0 0 0-1.184.636 1.287 1.287 0 0 0-.641 1c0 .637.592.894 2.083.894a10.783 10.783 0 0 0 3.625-.514l.123 1.579a3.667 3.667 0 0 0-.567.049 22.5 22.5 0 0 1-3.156.221 5.328 5.328 0 0 1-2.75-.514 1.773 1.773 0 0 1-.9-1.579 1.942 1.942 0 0 1 .542-1.358 6.032 6.032 0 0 1 2.651-1.726.675.675 0 0 0-.752-.661 4.181 4.181 0 0 0-2.527 1.26 5.514 5.514 0 0 0-1.072 1.114l-1.122-1.1a7.549 7.549 0 0 0 1.109-1.089 16.213 16.213 0 0 0 1.479-2.093.609.609 0 0 1 .1-.159c-.049 0-.209.012-.209.012-.2 0-1.282-.024-1.553-.024-.234-.012-.234-.012-.346-.012a1.379 1.379 0 0 0-.2.012zM205.689 14.494a28.857 28.857 0 0 0 2.232-1.958c.024-.747.024-.759.049-1.762a13.382 13.382 0 0 0-1.874.184l-.086-1.384c.2.012.3.024.407.024.222 0 .9-.037 1.59-.085.025-.318.037-.478.037-.918 0-.232.012-.4.012-.514v-.122a2.99 2.99 0 0 0-.049-.539l1.593.012a5.214 5.214 0 0 0-.124 1.175c-.012.232-.012.232-.037.575v.22a.571.571 0 0 0 .173-.061l.468.5a5.238 5.238 0 0 0-.7.8c-.025.526-.037.8-.049.833l.024-.012a2.16 2.16 0 0 1 .3-.232 5.732 5.732 0 0 1 3.545-1.35 3.453 3.453 0 0 1 2.4 1 3.573 3.573 0 0 1 .949 2.521 3.765 3.765 0 0 1-1.96 3.463 4.946 4.946 0 0 1-2.195.465 6.361 6.361 0 0 1-1.837-.27 4.533 4.533 0 0 0-.234-1.591 5.677 5.677 0 0 0 2.195.453 2.415 2.415 0 0 0 2.515-2.533 1.971 1.971 0 0 0-2.108-2.129 5.841 5.841 0 0 0-3.588 1.848l-.012 1.273c0 1.75.037 3.121.1 3.659h-1.6a12.116 12.116 0 0 0 .074-1.958v-1.086a6.1 6.1 0 0 1 .025-.722h-.024a3.924 3.924 0 0 1-.542.575 7.425 7.425 0 0 0-.949 1.052zM222.8 7.515a2.92 2.92 0 0 0-.1.379c-.024.159-.037.221-.074.417-.037.257-.037.257-.21 1.175-.049.269-.049.293-.086.453.357-.024.53-.037.764-.037a2.4 2.4 0 0 1 1.825.648 2.951 2.951 0 0 1 .58 2.166c0 2.1-.357 3.781-.949 4.455a1.567 1.567 0 0 1-1.369.551 6.022 6.022 0 0 1-1.9-.355c.012-.245.024-.416.024-.539a4.558 4.558 0 0 0-.123-1.04 5.132 5.132 0 0 0 1.8.477c.357 0 .555-.232.74-.832a10.8 10.8 0 0 0 .321-2.79c0-1.126-.284-1.457-1.258-1.457-.247 0-.432.012-.715.037a25.727 25.727 0 0 1-.752 2.655 26.087 26.087 0 0 1-1.479 3.439l-.185.367c-.037.074-.037.086-.1.208l-1.43-.783a13.381 13.381 0 0 0 1.282-2.3 20.69 20.69 0 0 0 1.2-3.463 22.27 22.27 0 0 0-2.207.392l-.148-1.444c.456 0 1.948-.147 2.626-.245a18.676 18.676 0 0 0 .321-2.472v-.23zm4.081 1.566a11.842 11.842 0 0 1 2.54 4.772l-1.405.71a10.942 10.942 0 0 0-.986-2.778 7.916 7.916 0 0 0-1.418-2.092zM234.172 7.396a11.937 11.937 0 0 0-.444 2.362c-.086.514-.136.93-.16 1.224h.037a2.547 2.547 0 0 0 .074-.269 4.934 4.934 0 0 1 .777-1.457 2.949 2.949 0 0 1 2.344-1.248 2.588 2.588 0 0 1 2.108 1.1 5.1 5.1 0 0 1 .888 3.255 5.142 5.142 0 0 1-3.181 5.03 10.566 10.566 0 0 1-2.417.685 4.683 4.683 0 0 0-.727-1.444 7.242 7.242 0 0 0 2.7-.7 3.726 3.726 0 0 0 2.083-3.745c0-1.762-.592-2.741-1.652-2.741a1.842 1.842 0 0 0-1.332.649 5.842 5.842 0 0 0-1.554 3.953v.257l-1.479.024a.913.913 0 0 0 .013-.159v-.229a73.445 73.445 0 0 1-.037-1.5c0-.991.074-2.35.173-3.194l.185-1.517a2.827 2.827 0 0 0 .037-.416zM247.612 9.733c.345-.086.555-.135 1.048-.232 0-.245 0-.245-.012-.673a7.137 7.137 0 0 0-.074-1.468h1.553a13.537 13.537 0 0 0-.062 1.958c.3-.024.468-.037.715-.037 1.738 0 2.885.991 2.885 2.5a2.769 2.769 0 0 1-1 2.129 3.482 3.482 0 0 1-2.281.722 6.07 6.07 0 0 1-1.911-.343 5.364 5.364 0 0 0-.222-1.505 4.687 4.687 0 0 0 1.973.478 2.486 2.486 0 0 0 1.393-.4 1.262 1.262 0 0 0 .506-1.041c0-.771-.6-1.224-1.64-1.224a12.511 12.511 0 0 0-3.7.759c.765 2.656.826 2.888 1.566 5.947a3.288 3.288 0 0 0 .185.588l-1.627.367a45.73 45.73 0 0 0-1.5-6.51 5.841 5.841 0 0 1-.616.22 14.416 14.416 0 0 0-1.59.624l-.481-1.432a7.06 7.06 0 0 0 1.122-.318c.505-.171.6-.2 1.2-.379a13.273 13.273 0 0 0-.838-2.276l1.529-.428a7.983 7.983 0 0 0 .432 1.444c.1.306.148.465.259.869zM262.4 11.936c0 .049.013.147.013.294a3.709 3.709 0 0 1 .395 1.725 3.919 3.919 0 0 1-1.838 3.3 8.627 8.627 0 0 1-2.231 1 4.008 4.008 0 0 0-.875-1.383 5.852 5.852 0 0 0 2.1-.709 2.579 2.579 0 0 0 1.431-1.787 2.037 2.037 0 0 1-1.812.869 2.288 2.288 0 0 1-1.431-.44 1.909 1.909 0 0 1-.851-1.652 2.263 2.263 0 0 1 2.454-2.227 2.073 2.073 0 0 1 1.282.367.486.486 0 0 1-.013-.147c-.024-.018-.024-.703-.024-1.031-1.763.049-2.922.085-3.464.122-1.862.135-1.862.135-2.195.184l-.041-1.459a5.425 5.425 0 0 0 .6.024c.308 0 .505 0 2.1-.061.8-.024.925-.024 1.936-.049.407-.013.407-.013 1.048-.037a6.611 6.611 0 0 0-.074-1.48l1.554-.012a9.683 9.683 0 0 0-.062 1.456c2.146-.012 3.106-.037 3.563-.085l.012 1.407c-.456-.037-1.048-.061-2.071-.061-.3 0-.518 0-1.491.024v.8zm-2.515.123a1.078 1.078 0 0 0-1.147.979.97.97 0 0 0 1.048.967 1.121 1.121 0 0 0 1.209-1.1.936.936 0 0 0-1.113-.847zM275.787 8.315a18.813 18.813 0 0 0-1.517 1.346c-.629.575-1.491 1.26-2.934 2.35a.786.786 0 0 0-.469.514c0 .184.024.208 1.109 1.016a41.283 41.283 0 0 1 3.884 3.194 3.055 3.055 0 0 0 .357.306l-1.27 1.273a11.9 11.9 0 0 0-1.6-1.677 39.214 39.214 0 0 0-3.182-2.606c-.813-.624-1.035-.955-1.035-1.518a1.426 1.426 0 0 1 .406-.991 7.557 7.557 0 0 1 1.085-.881 27.556 27.556 0 0 0 2.849-2.386 6.02 6.02 0 0 0 .9-1.016zM290.1 7.335a13.816 13.816 0 0 0-.087 1.9c0 .171 0 .208.013.8a13.408 13.408 0 0 0 3.612-.416l.123 1.481c-.246.012-.246.012-.8.073a26.741 26.741 0 0 1-2.9.22c.024.955.049 1.505.136 2.7a9.127 9.127 0 0 1 1.923.832 16.623 16.623 0 0 1 1.591 1.041c.16.11.222.159.37.245l-.962 1.383a4.826 4.826 0 0 0-.876-.808 7.767 7.767 0 0 0-1.627-1c-.16-.086-.259-.135-.395-.22a2.776 2.776 0 0 1 .024.392c0 1.371-.974 2.092-2.811 2.092a2.884 2.884 0 0 1-2.589-1.052 2.19 2.19 0 0 1-.309-1.089c0-1.272 1.27-2.19 3.045-2.19a4.573 4.573 0 0 1 1.146.123.286.286 0 0 1-.012-.123c-.05-.44-.16-3.781-.173-5.311a7.285 7.285 0 0 0-.062-1.077zm-2.486 7.68c-.925 0-1.542.367-1.542.906a.668.668 0 0 0 .42.636 2.218 2.218 0 0 0 .9.184 1.771 1.771 0 0 0 1.122-.331.856.856 0 0 0 .259-.686c0-.22-.012-.562-.012-.575a4.028 4.028 0 0 0-1.147-.134zM299.933 7.396a11.877 11.877 0 0 0-.444 2.362c-.086.514-.136.93-.16 1.224h.037c.024-.073.024-.073.074-.269a4.932 4.932 0 0 1 .776-1.457 2.951 2.951 0 0 1 2.343-1.248 2.587 2.587 0 0 1 2.108 1.1 5.1 5.1 0 0 1 .888 3.255 5.141 5.141 0 0 1-3.181 5.03 10.571 10.571 0 0 1-2.417.685 4.652 4.652 0 0 0-.728-1.444 7.239 7.239 0 0 0 2.7-.7 3.725 3.725 0 0 0 2.084-3.745c0-1.762-.592-2.741-1.652-2.741a1.839 1.839 0 0 0-1.331.649 5.842 5.842 0 0 0-1.554 3.953v.257l-1.476.027a.988.988 0 0 0 .012-.159v-.232a81.438 81.438 0 0 1-.037-1.5c0-.991.074-2.35.173-3.194l.186-1.517a2.878 2.878 0 0 0 .036-.416zM312.5 9.733a15.508 15.508 0 0 1 1.356.918 11.167 11.167 0 0 0 2-1.689h-2.86a12.038 12.038 0 0 1-3.465 2.215 3.259 3.259 0 0 0-.813-1.016 10.351 10.351 0 0 0 3.341-1.995 5.236 5.236 0 0 0 1.1-1.273l1.517.27c-.321.379-.383.44-.642.734h2.158a8.465 8.465 0 0 0 1.1-.061l.642.673a17.7 17.7 0 0 1-1.591 1.688 15.705 15.705 0 0 1-6.941 3.794 3.355 3.355 0 0 0-.69-1.175 14.009 14.009 0 0 0 4.105-1.505 8.879 8.879 0 0 0-1.27-.906zm2.343 3.757a11.594 11.594 0 0 1-2.022 1.31 12.806 12.806 0 0 1-2.317.942 3.3 3.3 0 0 0-.716-1.114c2.38-.575 4.71-1.97 5.585-3.377l1.308.416c-.321.379-.383.453-.653.759h1.787a6.5 6.5 0 0 0 1.085-.062l.728.734a6.9 6.9 0 0 0-.419.551 10.367 10.367 0 0 1-4.278 3.476 15.874 15.874 0 0 1-4.8 1.419 3.406 3.406 0 0 0-.74-1.249 13.154 13.154 0 0 0 5.153-1.358 6.449 6.449 0 0 0-1.381-1.016l1.086-.673a16.719 16.719 0 0 1 1.405 1.04 9.119 9.119 0 0 0 2.021-1.8h-2.835zM329.218 8.315A18.813 18.813 0 0 0 327.7 9.66c-.628.575-1.491 1.26-2.934 2.35a.786.786 0 0 0-.469.514c0 .184.024.208 1.109 1.016a41.283 41.283 0 0 1 3.884 3.194 3.055 3.055 0 0 0 .357.306l-1.267 1.275a11.81 11.81 0 0 0-1.6-1.677 38.792 38.792 0 0 0-3.181-2.606c-.813-.624-1.035-.955-1.035-1.518a1.426 1.426 0 0 1 .406-.991 7.632 7.632 0 0 1 1.085-.881 27.556 27.556 0 0 0 2.845-2.39 6.02 6.02 0 0 0 .9-1.016zM338.393 14.542c-.7 1.579-1.491 2.3-2.5 2.3-1.405 0-2.416-1.419-2.416-3.39a5.232 5.232 0 0 1 1.356-3.561 5.554 5.554 0 0 1 4.241-1.713c2.959 0 4.882 1.787 4.882 4.54a4.713 4.713 0 0 1-3 4.564 8.092 8.092 0 0 1-1.936.514 3.9 3.9 0 0 0-.752-1.432 6.587 6.587 0 0 0 2.453-.673 3.42 3.42 0 0 0 1.714-3.059 3.027 3.027 0 0 0-1.515-2.717 2.7 2.7 0 0 0-1.245-.367 17.608 17.608 0 0 1-1.282 4.994zm-1.812-4.381a4.089 4.089 0 0 0-1.677 3.3c0 1 .432 1.8.975 1.8.406 0 .826-.514 1.27-1.566a16.042 16.042 0 0 0 1.023-4.136 3.154 3.154 0 0 0-1.592.602zM351.809 7.273a8.111 8.111 0 0 0-.086 1.261 8.732 8.732 0 0 0 1.208 4.821 8.2 8.2 0 0 0 1.948 2.325 8.187 8.187 0 0 0 1.911 1.322 4.547 4.547 0 0 0-.962 1.358 11.978 11.978 0 0 1-3.132-2.888 9.644 9.644 0 0 1-1.64-3.341 8.713 8.713 0 0 1-.962 2.472 8.54 8.54 0 0 1-1.9 2.35 10.377 10.377 0 0 1-1.911 1.407 3.653 3.653 0 0 0-.962-1.26 8.22 8.22 0 0 0 2.688-2.044 9.386 9.386 0 0 0 2.256-6.755 8.12 8.12 0 0 0-.049-1.028h1.59zM357.717 13.282a16 16 0 0 0 2.688-3 3.756 3.756 0 0 1 .765-.771 1.7 1.7 0 0 1 .986-.367 1.757 1.757 0 0 1 1.109.465 8.217 8.217 0 0 1 .826.881 39.033 39.033 0 0 0 3.687 3.745 7.841 7.841 0 0 0 1.344 1.028l-.752 1.738a2.442 2.442 0 0 0-.358-.355 63.558 63.558 0 0 1-2.515-2.374c-.937-.955-.962-.991-2.281-2.484-.764-.869-.838-.93-1.072-.93a1.111 1.111 0 0 0-.739.661 34.616 34.616 0 0 1-2.43 2.961 2.067 2.067 0 0 0-.259.331z" fill="#464341"/></svg>